<?xml version="1.0" encoding="utf-8"?>
<!-- Generator: Adobe Illustrator 24.2.3, SVG Export Plug-In . SVG Version: 6.00 Build 0)  -->
<svg version="1.1" id="Layer_1" xmlns="http://www.w3.org/2000/svg" xmlns:xlink="http://www.w3.org/1999/xlink" x="0px" y="0px"
	 width="38px" height="38px" viewBox="0 0 38 38" style="enable-background:new 0 0 38 38;" xml:space="preserve">
<style type="text/css">
	.st0{fill:#FFFFFF;}
	.st1{opacity:0.4;}
</style>
<g>
	<path id="Path_6" class="st0" d="M13.5,18.1c-0.5,0.5-0.5,1.3,0,1.8l0,0l7.1,7c0.5,0.5,1.3,0.5,1.9,0c0.5-0.5,0.5-1.3,0-1.8l0,0
		L16.3,19l6.2-6.1c0.3-0.2,0.4-0.6,0.4-0.9s-0.1-0.7-0.4-0.9c-0.5-0.5-1.4-0.5-1.9,0L13.5,18.1z"/>
	<g class="st1">
		<path class="st0" d="M19,0c10.5,0,19,8.4,19,18.8s-8.5,18.7-19,18.7S0,29.1,0,18.7S8.5,0,19,0z M19,36.5c9.9,0,18-7.9,18-17.8
			S28.9,0.9,19,0.9S1,8.9,1,18.7S9.1,36.5,19,36.5z"/>
	</g>
</g>
</svg>
