<?xml version="1.0" encoding="utf-8"?>
<!-- Generator: Adobe Illustrator 24.2.3, SVG Export Plug-In . SVG Version: 6.00 Build 0)  -->
<svg version="1.1" id="Layer_1" xmlns="http://www.w3.org/2000/svg" xmlns:xlink="http://www.w3.org/1999/xlink" x="0px" y="0px"
	 width="38px" height="38px" viewBox="0 0 38 38" style="enable-background:new 0 0 38 38;" xml:space="preserve">
<style type="text/css">
	.st0{fill:#FFFFFF;}
	.st1{opacity:0.4;}
</style>
<g>
	<path id="Path_6" class="st0" d="M24.5,19.4c0.5-0.5,0.5-1.3,0-1.8c0,0,0,0,0,0l-7.1-7c-0.5-0.5-1.3-0.5-1.9,0
		c-0.5,0.5-0.5,1.3,0,1.8c0,0,0,0,0,0l6.2,6.1l-6.2,6.1c-0.3,0.2-0.4,0.6-0.4,0.9c0,0.3,0.1,0.7,0.4,0.9c0.5,0.5,1.4,0.5,1.9,0
		L24.5,19.4z"/>
	<g class="st1">
		<path class="st0" d="M19,37.5c-10.5,0-19-8.4-19-18.8S8.5,0,19,0s19,8.4,19,18.8S29.5,37.5,19,37.5z M19,1C9.1,1,1,8.9,1,18.8
			s8.1,17.8,18,17.8s18-8,18-17.8S28.9,1,19,1z"/>
	</g>
</g>
</svg>
