<?xml version="1.0" encoding="utf-8"?>
<!-- Generator: Adobe Illustrator 24.2.3, SVG Export Plug-In . SVG Version: 6.00 Build 0)  -->
<svg version="1.1" id="Layer_1" xmlns="http://www.w3.org/2000/svg" xmlns:xlink="http://www.w3.org/1999/xlink" x="0px" y="0px"
	 width="83.8px" height="59.3px" viewBox="0 0 83.8 59.3" style="enable-background:new 0 0 83.8 59.3;" xml:space="preserve">
<style type="text/css">
	.st0{opacity:0.3;fill:#FFFFFF;}
	.st1{fill:#FFFFFF;}
</style>
<g>
	<path class="st0" d="M80.1,5.5c-3-3.6-8.5-5-19-5H22.8C12,0.5,6.4,2,3.4,5.8c-2.9,3.7-2.9,9.1-2.9,16.6v14.3c0,14.6,3.4,22,22.3,22
		H61c9.1,0,14.2-1.3,17.5-4.4c3.4-3.2,4.8-8.5,4.8-17.6V22.5C83.3,14.5,83.1,9.1,80.1,5.5z M54.8,30.5c-0.3,0.5-0.6,0.9-1.1,1.1
		l-17.4,9.1c-1.3,0.7-2.9,0.2-3.6-1.1c-0.2-0.4-0.3-0.8-0.3-1.2V20.2c0-1.5,1.2-2.7,2.7-2.7c0.4,0,0.8,0.1,1.2,0.3l17.4,9
		C55,27.6,55.5,29.2,54.8,30.5z"/>
	<path class="st1" d="M61,59.3H22.8C3.5,59.3,0,51.7,0,36.8V22.5c0-7.6,0-13.1,3-17C6.1,1.6,11.8,0,22.8,0H61
		c10.7,0,16.3,1.5,19.4,5.2l0,0c3.1,3.7,3.3,9.3,3.3,17.3v14.3c0,9.2-1.5,14.6-4.9,17.9C75.5,58,70.3,59.3,61,59.3z M22.8,1
		C12.2,1,6.7,2.5,3.8,6.1C1,9.7,1,15,1,22.5v14.3c0,14.5,3.3,21.5,21.8,21.5H61c9,0,14-1.2,17.1-4.3c3.3-3.1,4.6-8.3,4.6-17.2V22.5
		c0-7.8-0.2-13.2-3.1-16.6C76.8,2.4,71.4,1,61,1H22.8z M35.1,41.5c-0.3,0-0.6,0-1-0.1c-0.8-0.3-1.5-0.8-1.9-1.6
		c-0.2-0.5-0.4-1-0.4-1.5V20.2c0-0.8,0.3-1.6,0.9-2.2c0.6-0.6,1.4-0.9,2.2-0.9c0,0,0,0,0,0c0.5,0,1,0.1,1.5,0.4l17.4,9
		c1.6,0.8,2.2,2.7,1.4,4.3h0c-0.3,0.6-0.8,1-1.3,1.3l-17.4,9.1C36.1,41.4,35.6,41.5,35.1,41.5z M35.1,18.1c-0.6,0-1.1,0.2-1.5,0.6
		c-0.4,0.4-0.6,1-0.6,1.5v18.1c0,0.3,0.1,0.7,0.2,1c0.6,1.1,1.9,1.5,2.9,0.9l17.4-9.1c0.4-0.2,0.7-0.5,0.9-0.9l0,0
		c0.3-0.5,0.3-1.1,0.1-1.7c-0.2-0.6-0.6-1-1.1-1.3l-17.4-9C35.7,18.1,35.4,18.1,35.1,18.1C35.1,18.1,35.1,18.1,35.1,18.1z"/>
</g>
</svg>
